<?xml version="1.0" standalone="no"?>
<!DOCTYPE svg PUBLIC "-//W3C//DTD SVG 20010904//EN"
 "http://www.w3.org/TR/2001/REC-SVG-20010904/DTD/svg10.dtd">
<svg version="1.0" xmlns="http://www.w3.org/2000/svg"
 width="1024.000000pt" height="1024.000000pt" viewBox="0 0 1024.000000 1024.000000"
 preserveAspectRatio="xMidYMid meet">

<g transform="translate(0.000000,1024.000000) scale(0.100000,-0.100000)"
fill="#000000" stroke="none">
<path d="M5081 6585 c-348 -44 -554 -133 -946 -405 -190 -132 -293 -185 -395
-205 -612 -117 -877 -187 -1085 -284 -111 -53 -195 -117 -225 -173 l-24 -46
38 -62 c43 -70 66 -143 66 -213 l0 -47 -37 5 c-21 3 -67 7 -102 8 l-65 2 -23
-40 c-22 -36 -23 -48 -19 -120 19 -272 19 -300 2 -314 -50 -41 28 -151 131
-185 58 -18 162 -36 219 -36 39 0 45 -4 83 -54 48 -65 109 -109 189 -138 79
-29 311 -32 389 -5 66 23 127 67 155 113 l23 35 100 -6 c138 -8 903 -45 940
-45 26 0 37 -10 76 -63 75 -103 176 -158 327 -177 111 -14 314 -11 371 6 142
42 253 218 280 444 36 314 -136 614 -314 546 -77 -30 -135 -116 -177 -263 -19
-65 -23 -102 -23 -228 0 -142 2 -155 32 -240 17 -49 30 -91 29 -93 -6 -5 -72
22 -89 37 -43 36 -64 120 -73 282 -13 219 42 429 138 535 163 178 360 121 483
-139 58 -123 75 -191 82 -322 4 -82 1 -127 -11 -179 -9 -38 -15 -70 -14 -71 2
-2 86 8 188 21 481 60 1010 124 1028 124 12 0 30 -18 50 -51 44 -70 81 -84
267 -98 83 -6 172 -18 199 -26 212 -64 354 95 373 415 13 232 -84 470 -192
470 -62 0 -128 -89 -162 -220 -34 -134 -17 -383 34 -482 17 -35 3 -37 -45 -8
-39 24 -48 44 -74 170 -38 180 -12 422 60 553 74 137 195 166 288 71 85 -88
142 -250 151 -432 3 -63 9 -109 12 -104 3 5 29 21 57 35 56 28 98 72 123 127
13 28 16 71 15 225 -2 286 -45 498 -116 573 -18 19 -76 56 -128 82 -113 57
-156 89 -321 245 -117 110 -256 214 -379 282 -89 50 -447 112 -915 158 -230
23 -891 29 -1044 10z m756 -151 l81 -6 -96 -97 c-54 -53 -135 -136 -181 -184
-98 -104 -179 -160 -275 -189 l-69 -21 -511 23 c-281 12 -549 25 -596 29 l-85
6 195 130 c218 146 314 199 442 244 116 40 234 62 398 71 137 8 548 5 697 -6z
m661 -116 c27 -33 75 -229 87 -354 l7 -71 -86 -7 c-47 -3 -111 -3 -142 0 l-56
7 27 21 c37 29 31 64 -15 90 -28 17 -57 22 -140 24 -139 5 -179 -6 -242 -69
-117 -117 -95 1 26 144 90 105 203 183 309 212 67 18 211 20 225 3z m408 -77
c135 -52 244 -133 285 -213 30 -58 26 -65 -43 -76 -94 -16 -387 -46 -393 -41
-2 3 -14 52 -25 110 -11 57 -31 143 -45 189 -13 47 -25 88 -25 92 0 11 164
-29 246 -61z m-2025 -731 c10 -6 19 -19 19 -28 0 -34 -161 -172 -292 -250 -28
-18 -84 -29 -253 -52 -371 -51 -453 -40 -541 76 -26 34 -26 35 -8 55 26 29
149 87 224 105 75 17 711 101 783 103 27 1 57 -4 68 -9z"/>
<path d="M6812 4145 c-143 -32 -214 -79 -393 -258 -113 -113 -146 -140 -209
-171 -41 -20 -100 -40 -130 -45 -46 -8 -1120 -21 -1791 -22 -263 0 -301 14
-496 184 -137 121 -268 168 -462 168 -138 0 -238 -23 -340 -76 -158 -83 -305
-251 -289 -332 3 -17 22 -18 280 -23 261 -5 278 -6 305 -26 73 -54 107 -152
101 -288 -3 -77 -8 -99 -33 -144 -53 -98 -48 -96 -370 -102 l-280 -5 -3 -23
c-5 -31 36 -91 113 -166 74 -73 147 -118 247 -154 68 -24 85 -26 243 -26 112
-1 179 3 195 11 22 11 19 11 -20 5 -25 -4 -110 -7 -190 -7 -132 0 -152 3 -227
28 -100 34 -179 85 -256 163 -98 100 -119 146 -73 158 14 3 135 6 269 5 263
-1 277 2 323 53 12 12 32 43 45 68 21 40 24 58 24 160 0 99 -3 122 -23 165
-13 28 -35 63 -50 78 -53 56 -59 57 -347 57 l-265 0 0 25 c0 104 199 288 377
350 65 23 101 28 213 32 118 5 146 3 213 -16 115 -31 202 -80 302 -168 148
-131 225 -164 383 -167 53 0 493 3 977 8 944 9 930 8 1038 62 71 36 122 78
257 215 150 152 251 207 406 224 196 21 424 -84 566 -259 25 -32 53 -72 62
-90 l15 -31 -222 -5 -222 -6 228 -2 c188 -2 227 0 227 12 0 51 -175 239 -283
304 -130 78 -300 108 -435 77z"/>
<path d="M6960 3732 c-79 -38 -161 -151 -175 -243 -4 -21 1 -13 14 23 39 117
104 190 198 224 22 7 29 13 18 13 -11 0 -36 -7 -55 -17z"/>
<path d="M6767 3390 c-13 -116 24 -267 85 -357 27 -40 91 -92 131 -106 10 -4
132 -7 272 -7 142 -1 257 -5 260 -10 19 -31 -141 -207 -249 -275 -99 -61 -181
-87 -297 -93 -118 -6 -215 14 -315 63 -96 47 -110 58 -238 183 -120 118 -203
177 -295 214 -50 20 -76 22 -246 24 l-190 1 190 -6 c162 -6 198 -11 246 -29
93 -37 177 -98 289 -211 116 -116 182 -165 275 -204 131 -54 314 -61 449 -16
126 42 286 168 368 290 51 76 58 73 -247 79 -300 6 -299 5 -366 77 -76 79
-112 191 -111 341 0 56 -1 102 -3 102 -1 0 -5 -27 -8 -60z"/>
<path d="M4373 3033 c136 -2 358 -2 495 0 136 1 24 2 -248 2 -272 0 -384 -1
-247 -2z"/>
<path d="M4098 3023 c7 -3 16 -2 19 1 4 3 -2 6 -13 5 -11 0 -14 -3 -6 -6z"/>
<path d="M4004 2989 c-70 -36 -134 -85 -229 -176 l-70 -66 65 57 c116 100 182
149 249 183 36 18 61 33 55 33 -7 0 -38 -14 -70 -31z"/>
<path d="M3667 2731 c-41 -26 -46 -36 -10 -17 17 9 35 20 38 26 8 13 6 12 -28
-9z"/>
<path d="M3570 2680 c-25 -10 -40 -19 -34 -19 14 -1 84 28 84 34 0 6 3 7 -50
-15z"/>
</g>
</svg>
