<?xml version="1.0" standalone="no"?>
<!DOCTYPE svg PUBLIC "-//W3C//DTD SVG 20010904//EN"
 "http://www.w3.org/TR/2001/REC-SVG-20010904/DTD/svg10.dtd">
<svg version="1.0" xmlns="http://www.w3.org/2000/svg"
 width="465.000000pt" height="466.000000pt" viewBox="0 0 465.000000 466.000000"
 preserveAspectRatio="xMidYMid meet">

<g transform="translate(0.000000,466.000000) scale(0.100000,-0.100000)"
fill="#000000" stroke="none">
<path d="M2255 4333 c-15 -26 -42 -70 -60 -98 -18 -27 -38 -66 -46 -85 -7 -19
-28 -61 -46 -92 -18 -31 -33 -59 -33 -61 0 -3 -34 -56 -76 -118 -42 -61 -93
-146 -113 -188 -21 -42 -51 -98 -66 -126 -16 -27 -33 -59 -39 -70 -6 -11 -25
-40 -42 -65 -28 -41 -47 -74 -135 -235 -70 -129 -109 -206 -109 -215 0 -19
-60 -141 -108 -217 -26 -43 -67 -121 -91 -173 -24 -52 -68 -139 -98 -192 -30
-54 -65 -124 -79 -155 -14 -31 -34 -69 -45 -84 -10 -15 -43 -74 -72 -131 -29
-56 -86 -159 -126 -228 -127 -216 -135 -233 -180 -335 -24 -55 -52 -119 -62
-142 -11 -23 -19 -44 -19 -46 0 -2 -36 -70 -80 -152 -44 -82 -80 -157 -80
-166 0 -10 10 -29 22 -43 21 -23 27 -25 62 -16 33 7 1108 6 1721 -2 72 -1 252
2 400 6 149 4 502 8 785 8 283 -1 564 3 624 8 128 10 144 19 127 73 -7 19 -11
39 -9 43 5 18 -25 86 -58 135 -19 28 -34 55 -34 61 0 5 -13 28 -28 51 -33 50
-45 76 -66 141 -13 40 -106 220 -206 397 -8 14 -24 44 -36 65 -12 22 -44 79
-73 127 -28 48 -51 92 -51 96 0 4 -13 27 -30 49 -16 23 -30 45 -30 49 0 3 -6
14 -14 22 -8 9 -31 48 -51 86 -20 39 -40 75 -45 80 -11 13 -107 182 -157 275
-48 89 -116 216 -153 285 -39 73 -100 184 -127 230 -12 22 -27 51 -33 64 -6
13 -19 35 -29 50 -22 31 -91 166 -120 233 -11 26 -38 72 -61 103 -22 30 -52
76 -65 101 -14 26 -29 52 -33 58 -5 6 -17 31 -27 56 -11 25 -29 61 -40 80 -12
19 -37 64 -55 100 -19 36 -41 74 -50 85 -10 11 -34 49 -54 84 -21 35 -53 83
-72 106 -19 23 -34 47 -34 54 0 6 -6 11 -12 11 -7 0 -23 3 -35 6 -17 5 -26 -3
-48 -43z m-3 -195 c-7 -7 -12 -8 -12 -2 0 14 12 26 19 19 2 -3 -1 -11 -7 -17z
m108 -17 c0 -12 -12 -26 -30 -35 -16 -8 -30 -10 -30 -5 0 5 4 9 8 9 5 0 15 11
22 25 16 30 30 32 30 6z m74 -53 c-8 -29 -10 -31 -23 -24 -7 5 -7 13 2 26 16
27 30 25 21 -2z m16 -42 c0 -3 -4 -8 -10 -11 -5 -3 -10 -1 -10 4 0 6 5 11 10
11 6 0 10 -2 10 -4z m-250 -26 c0 -13 -7 -20 -20 -20 -23 0 -26 10 -8 28 18
18 28 15 28 -8z m87 9 c11 -11 6 -49 -7 -49 -15 0 -32 30 -26 45 6 18 18 19
33 4z m208 -47 c-22 -5 -29 3 -21 25 7 17 8 17 22 -2 13 -18 13 -20 -1 -23z
m-74 -14 c-41 -42 -40 -55 7 -49 6 1 12 -2 12 -7 0 -4 -6 -14 -12 -21 -11 -10
-9 -16 10 -28 26 -18 29 -38 7 -47 -10 -3 -27 6 -45 24 -31 32 -70 40 -70 15
0 -27 -58 -75 -90 -75 -23 0 -31 -5 -36 -24 -3 -14 -12 -27 -19 -30 -8 -3 -11
2 -8 15 9 32 -22 32 -73 0 -55 -36 -64 -38 -58 -13 3 9 -4 27 -16 40 -11 12
-16 22 -10 22 5 0 10 5 10 10 0 11 34 62 57 87 9 11 11 8 10 -13 -3 -35 23
-52 57 -36 25 11 37 52 16 52 -5 0 -10 8 -10 18 0 32 99 68 115 42 4 -7 13 -7
26 0 13 8 25 7 39 0 24 -13 44 -4 36 16 -4 10 2 14 19 14 13 0 27 5 30 10 3 6
11 10 17 10 6 0 -4 -14 -21 -32z m121 -45 c23 -21 23 -29 -1 -36 -14 -3 -18
-1 -14 9 3 8 0 21 -7 29 -17 20 -1 19 22 -2z m-5 -107 c-2 -6 -1 -20 3 -31 6
-18 0 -22 -59 -40 -54 -17 -67 -25 -69 -44 -2 -13 1 -28 7 -34 6 -6 11 -21 11
-33 0 -26 24 -38 39 -20 6 6 8 21 5 32 -4 15 2 23 21 32 36 17 45 15 45 -9 0
-19 4 -20 33 -15 29 5 34 3 45 -24 14 -30 39 -39 58 -20 13 13 89 -54 79 -70
-12 -20 -38 -11 -32 11 3 13 0 22 -10 26 -19 7 -62 -44 -56 -67 4 -14 -7 -16
-71 -16 -42 1 -77 -3 -78 -9 -4 -13 119 -35 155 -28 32 6 60 -20 51 -49 -3 -9
0 -19 6 -23 18 -11 50 5 50 26 0 12 7 19 20 19 11 0 20 -2 20 -4 0 -2 3 -11 6
-19 3 -10 -3 -17 -20 -21 -14 -3 -26 -14 -26 -22 0 -16 -19 -15 -63 2 -9 3
-16 -3 -20 -17 -5 -19 -11 -21 -40 -16 -38 6 -57 -6 -57 -35 0 -15 8 -18 43
-18 32 0 45 -5 55 -20 9 -16 17 -18 30 -11 12 6 34 6 61 0 61 -14 80 -26 74
-47 -2 -10 3 -24 11 -31 20 -17 21 -31 2 -31 -8 0 -17 9 -21 19 -3 11 -15 23
-26 26 -10 4 -19 12 -19 20 0 27 -79 35 -99 11 -10 -12 -7 -17 15 -29 18 -9
23 -17 15 -21 -7 -4 -17 -4 -24 1 -7 5 -43 8 -82 8 -95 0 -93 -19 5 -52 77
-25 117 -51 93 -60 -8 -3 -11 -14 -7 -29 9 -36 -8 -29 -42 16 -33 45 -60 58
-80 38 -17 -17 -7 -58 15 -58 9 0 22 -12 28 -27 14 -30 7 -47 -9 -20 -7 14
-17 17 -40 12 -28 -6 -29 -6 -17 13 11 18 10 24 -4 40 -9 10 -17 23 -17 29 0
6 -7 13 -15 17 -18 7 -45 -3 -45 -16 0 -6 -21 -7 -54 -3 -34 4 -56 3 -60 -3
-4 -6 -27 -14 -52 -18 -32 -4 -44 -10 -40 -20 6 -15 -36 -37 -104 -54 -25 -6
-61 -17 -80 -24 -28 -11 -41 -11 -65 -2 -22 9 -26 14 -16 21 12 7 77 16 121
17 8 0 25 10 38 21 l22 21 -22 23 c-21 23 -21 23 -1 23 21 0 37 22 26 34 -4 3
-15 6 -26 6 -13 0 -17 5 -13 15 7 20 -27 38 -42 23 -18 -18 -14 -36 8 -48 32
-17 25 -40 -12 -40 -62 -1 -152 -54 -160 -96 -4 -20 -34 -41 -44 -31 -4 4 1
22 11 41 19 34 19 34 -6 60 -29 31 -55 33 -69 6 -6 -11 -17 -20 -25 -20 -21 0
-48 -46 -42 -70 3 -11 1 -20 -3 -20 -5 0 -15 -2 -23 -6 -10 -3 -16 4 -20 25
-8 39 -1 59 25 66 13 5 18 14 16 28 -2 18 -9 21 -33 19 -16 -2 -47 -14 -67
-28 -43 -28 -67 -32 -48 -9 10 12 10 18 0 30 -7 9 -10 18 -6 22 3 4 12 -2 20
-12 14 -20 46 -15 46 7 0 20 50 40 67 27 9 -8 17 -8 27 0 7 6 27 8 45 5 25 -5
31 -3 31 10 0 9 6 25 12 36 16 25 0 55 -28 55 -13 0 -22 -12 -29 -39 -8 -26
-14 -35 -19 -27 -5 8 -18 10 -37 6 -23 -5 -33 -2 -49 17 -23 27 -25 42 -7 56
9 8 22 6 45 -5 34 -16 66 -11 60 10 -3 6 -14 16 -26 22 -12 5 -22 16 -22 23 0
7 -4 10 -10 7 -18 -11 -10 15 21 71 19 34 37 53 45 50 7 -3 28 -8 46 -11 28
-5 35 -3 43 16 7 17 24 26 64 35 51 11 74 28 68 49 -2 5 -20 8 -40 7 -31 -3
-37 0 -37 16 0 27 8 31 40 19 23 -9 33 -8 42 2 18 18 -34 63 -65 56 -12 -3
-28 -1 -36 4 -12 8 -12 14 -1 41 7 17 16 28 19 23 3 -4 18 -14 34 -22 25 -13
31 -12 70 9 23 13 51 32 61 42 25 23 39 23 31 -1 -12 -40 24 -68 52 -40 8 8
17 8 29 1 22 -13 43 -3 178 86 54 36 101 73 103 83 3 10 10 16 15 13 5 -3 7
-11 5 -18z m61 -37 c-24 -13 -12 -35 24 -48 35 -12 31 -27 -4 -18 -32 8 -53
44 -37 63 6 8 17 14 23 14 6 0 3 -5 -6 -11z m-586 -63 c21 -16 13 -26 -19 -26
-25 0 -26 1 -17 24 7 19 14 20 36 2z m678 -72 c0 -8 -4 -12 -10 -9 -5 3 -10
13 -10 21 0 8 5 12 10 9 6 -3 10 -13 10 -21z m-740 -86 c-1 -19 -50 -52 -61
-41 -16 16 1 42 29 46 15 2 28 5 30 6 1 0 2 -5 2 -11z m810 -77 c-11 -22 -35
-28 -45 -11 -5 8 46 42 53 35 2 -2 -1 -13 -8 -24z m-906 -16 c-4 -8 -11 -15
-16 -15 -6 0 -5 6 2 15 7 8 14 15 16 15 2 0 1 -7 -2 -15z m1089 -285 c6 -22 0
-25 -22 -11 -8 5 -11 16 -8 26 8 20 23 13 30 -15z m-163 -15 c0 -7 8 -18 18
-24 16 -9 16 -11 0 -27 -20 -21 -30 -15 -33 20 -2 14 -6 30 -10 35 -3 6 1 11
9 11 9 0 16 -7 16 -15z m-1105 -35 c3 -5 -3 -10 -15 -10 -12 0 -18 5 -15 10 3
6 10 10 15 10 5 0 12 -4 15 -10z m1235 -46 c0 -27 -11 -30 -39 -12 -18 11 -18
13 -3 34 20 26 42 15 42 -22z m-133 -10 c-3 -3 -12 -4 -19 -1 -8 3 -5 6 6 6
11 1 17 -2 13 -5z m243 -24 c0 -5 -2 -10 -4 -10 -3 0 -8 5 -11 10 -3 6 -1 10
4 10 6 0 11 -4 11 -10z m-606 -42 c-3 -4 -23 -8 -44 -8 -38 0 -39 1 -24 19 14
15 21 17 44 8 16 -6 27 -15 24 -19z m-551 -22 c3 -8 3 -23 0 -34 -2 -11 1 -23
7 -27 8 -5 -1 -14 -26 -26 -50 -23 -66 -24 -36 -1 13 10 23 25 21 33 -3 20 12
69 21 69 4 0 10 -6 13 -14z m977 -10 c8 -7 24 -16 34 -20 10 -3 17 -9 14 -12
-7 -6 -118 42 -118 52 0 9 53 -6 70 -20z m-1249 -14 c-27 -53 -33 -72 -27 -87
4 -12 12 -15 24 -10 50 21 57 17 24 -14 -39 -37 -42 -37 -42 -10 0 12 -8 23
-20 26 -11 3 -20 7 -20 9 0 19 52 114 60 109 6 -3 6 -13 1 -23z m1144 -22 c3
-5 15 -10 26 -10 13 0 24 -12 35 -40 12 -30 22 -40 38 -40 13 0 31 -12 44 -29
12 -17 51 -46 87 -66 36 -20 65 -39 65 -42 0 -3 -12 -18 -28 -32 -23 -23 -26
-31 -18 -54 15 -42 -3 -45 -35 -7 -26 31 -31 33 -42 19 -9 -13 -18 -14 -37 -6
-14 5 -41 12 -60 16 -30 5 -34 10 -35 36 0 23 -5 30 -20 30 -13 0 -20 -6 -19
-17 1 -11 -5 -18 -17 -18 -10 0 -19 5 -19 11 0 5 -4 8 -9 5 -5 -4 -40 -1 -78
5 -37 5 -120 13 -183 16 -117 5 -160 0 -290 -37 -36 -10 -81 -21 -100 -24 -72
-13 -240 -89 -283 -128 -14 -13 -34 -30 -44 -39 -10 -8 -49 -54 -88 -102 -42
-52 -86 -95 -111 -108 -39 -21 -43 -22 -59 -6 -21 22 -32 21 -44 0 -5 -10 -12
-15 -16 -11 -3 3 -1 15 6 26 10 16 10 24 1 35 -10 12 -9 16 9 20 17 5 20 11
14 35 -5 25 -3 31 14 37 12 3 24 17 27 31 4 15 13 24 25 24 19 0 25 -11 12
-23 -15 -16 -7 -59 14 -78 l22 -21 20 33 c25 40 27 59 6 59 -8 0 -15 4 -15 8
0 16 109 127 109 112 1 -8 -15 -32 -35 -53 -23 -24 -34 -45 -32 -59 5 -33 22
-32 63 4 48 42 66 82 53 119 -12 35 -1 52 69 108 45 35 53 39 61 24 15 -25 46
-9 38 21 -7 27 4 38 89 89 89 53 205 96 287 105 40 5 135 10 211 11 132 2 137
1 137 -18 0 -15 7 -22 23 -23 93 -7 117 -1 117 29 0 12 -7 14 -30 10 -16 -4
-38 -3 -47 0 -14 6 -12 9 12 14 45 10 53 10 60 -1z m-1040 -28 c-3 -3 -11 0
-18 7 -9 10 -8 11 6 5 10 -3 15 -9 12 -12z m-188 -128 c-9 -9 -28 6 -21 18 4
6 10 6 17 -1 6 -6 8 -13 4 -17z m143 8 c0 -14 -40 -52 -55 -52 -21 0 -19 8 13
35 28 25 42 31 42 17z m-85 -62 c3 -5 -1 -10 -10 -10 -9 0 -13 5 -10 10 3 6 8
10 10 10 2 0 7 -4 10 -10z m1535 -75 c17 -9 30 -20 30 -25 0 -16 -13 -11 -45
15 -34 28 -28 32 15 10z m-1556 -100 c-12 -19 -25 -25 -52 -25 -40 0 -37 6 16
31 51 24 55 23 36 -6z m776 -16 c0 -5 6 -9 13 -9 7 0 29 -29 47 -65 l34 -65
-54 -55 -53 -54 -41 25 c-23 14 -58 33 -79 42 -35 14 -38 18 -33 45 3 16 6 40
6 53 0 17 8 28 25 34 14 5 25 14 25 19 0 5 19 18 42 29 41 19 68 19 68 1z
m280 7 c0 -3 -4 -8 -10 -11 -5 -3 -10 -1 -10 4 0 6 5 11 10 11 6 0 10 -2 10
-4z m-1215 -75 c-13 -11 -77 -32 -82 -27 -3 2 8 11 24 19 31 16 73 22 58 8z
m1505 -26 c0 -17 -2 -18 -24 -9 -23 9 -20 24 4 24 11 0 20 -7 20 -15z m464
-11 c3 -8 2 -12 -4 -9 -6 3 -10 10 -10 16 0 14 7 11 14 -7z m-624 -4 c0 -5 -5
-10 -11 -10 -5 0 -7 5 -4 10 3 6 8 10 11 10 2 0 4 -4 4 -10z m253 -10 c-4 -16
5 -30 36 -56 35 -30 39 -38 31 -55 -13 -24 1 -31 51 -27 25 2 34 -1 34 -12 0
-11 -12 -15 -45 -15 -42 0 -45 -2 -48 -28 -3 -23 -5 -25 -18 -13 -8 8 -14 22
-14 31 0 18 -23 30 -45 22 -12 -5 -12 -11 1 -44 21 -51 28 -57 52 -44 15 8 23
7 31 -3 6 -7 29 -16 51 -20 43 -7 51 -19 23 -35 -14 -7 -15 -13 -6 -22 6 -6 9
-17 7 -24 -3 -6 2 -17 10 -24 8 -7 12 -19 9 -27 -8 -21 -17 -17 -31 16 -8 17
-20 30 -28 30 -14 0 -41 -55 -36 -72 1 -4 -17 -11 -41 -15 -33 -7 -43 -13 -45
-32 -3 -18 1 -22 17 -19 11 2 20 0 21 -4 1 -24 -2 -28 -22 -25 -15 1 -26 -5
-32 -20 -11 -24 -90 -68 -106 -58 -6 4 -16 2 -23 -3 -7 -5 -24 -12 -39 -16
-16 -3 -28 -13 -28 -20 0 -9 -20 -19 -50 -26 -28 -7 -56 -20 -63 -29 -23 -32
-148 -54 -312 -56 -98 0 -118 3 -182 27 -40 16 -87 31 -105 35 -18 3 -44 14
-57 25 -13 10 -32 18 -43 18 -24 0 -78 27 -78 40 0 5 -10 12 -22 15 -56 16
-78 29 -78 45 0 19 -19 30 -51 30 -13 0 -17 5 -12 16 4 10 0 22 -10 29 -15 11
-14 13 8 25 33 18 33 50 1 50 -13 0 -29 7 -36 15 -7 8 -25 15 -41 15 -16 0
-29 5 -29 11 0 6 7 8 16 5 16 -6 48 17 37 27 -3 3 2 14 12 23 13 14 18 15 25
4 4 -7 15 -10 25 -7 9 4 13 12 10 17 -4 6 -1 17 5 25 7 8 9 15 5 15 -5 0 -1 8
9 18 9 11 15 27 14 38 -4 28 16 29 22 2 4 -14 13 -23 25 -23 11 0 26 -4 33 -8
17 -11 15 -44 -3 -51 -19 -7 -20 -32 -1 -39 8 -3 22 0 32 8 12 9 23 10 30 4 7
-5 17 -8 24 -7 7 2 15 -3 17 -9 3 -8 -4 -13 -16 -13 -31 0 -28 -38 4 -50 13
-5 33 -27 45 -50 14 -28 39 -52 80 -78 45 -28 58 -41 54 -54 -6 -21 24 -37 36
-19 5 10 18 9 56 -4 27 -8 55 -19 62 -24 16 -10 4 -44 -13 -37 -7 2 -21 -1
-30 -8 -16 -11 -16 -13 0 -26 15 -12 19 -12 30 3 7 9 22 17 34 17 14 0 21 6
21 20 0 17 7 20 41 20 47 0 164 18 194 30 11 5 40 16 65 25 66 25 200 143 200
178 0 9 4 25 9 35 17 31 52 153 46 162 -5 8 2 46 26 143 10 39 39 52 39 17 0
-11 5 -20 11 -20 5 0 8 -4 4 -9 -8 -14 23 -41 40 -35 17 7 20 30 5 39 -14 8
-13 38 2 53 16 16 17 15 11 -8z m-1053 -65 c0 5 5 4 12 -3 7 -7 21 -12 33 -12
11 0 28 -7 38 -14 17 -13 16 -14 -2 -19 -15 -3 -19 -13 -19 -36 1 -18 -4 -37
-10 -43 -7 -7 -12 -22 -12 -35 0 -13 -3 -23 -7 -23 -5 1 -32 23 -62 49 -47 43
-53 52 -47 76 4 15 16 29 27 32 16 5 19 11 14 32 -6 25 -6 25 14 7 12 -11 21
-15 21 -11z m1255 -22 c20 -47 10 -56 -20 -18 -18 21 -21 32 -13 42 15 18 16
17 33 -24z m-1835 22 c0 -8 -88 -45 -106 -45 -30 0 -1 25 32 28 20 1 43 6 53
12 19 11 21 12 21 5z m340 -30 c-7 -9 -15 -13 -18 -10 -3 2 1 11 8 20 7 9 15
13 18 10 3 -2 -1 -11 -8 -20z m-350 -60 c-7 -8 -10 -21 -7 -30 4 -8 2 -17 -3
-20 -6 -4 -10 -14 -10 -24 0 -23 -41 -61 -47 -43 -3 6 -11 12 -19 12 -17 0
-18 12 -2 28 10 10 10 17 0 32 -10 17 -10 20 6 20 10 0 23 5 29 11 14 14 57
37 62 33 2 -2 -2 -10 -9 -19z m1959 -19 c18 -19 29 -36 24 -39 -5 -3 -17 2
-25 13 -11 12 -24 17 -37 13 -16 -4 -21 -1 -21 14 0 20 8 33 20 33 3 0 21 -15
39 -34z m-1162 8 c2 -5 -8 -9 -22 -9 -27 0 -33 10 -12 18 16 7 30 3 34 -9z
m530 -1 c19 -13 28 -14 31 -5 2 6 11 12 20 11 11 0 12 -2 5 -6 -7 -2 -13 -11
-13 -19 0 -7 -13 -20 -30 -29 -28 -15 -42 -45 -20 -45 6 0 10 -4 10 -9 0 -11
-50 -1 -75 15 -11 8 -15 15 -10 15 6 1 15 2 20 4 6 1 16 3 23 3 18 3 15 29 -5
40 -14 8 -14 12 -2 25 18 20 15 20 46 0z m-1027 -3 c0 -5 -4 -10 -10 -10 -16
0 -12 -30 5 -36 23 -9 18 -24 -9 -24 -31 0 -42 37 -19 62 18 20 33 23 33 8z
m-222 -22 c1 -8 -9 -20 -23 -26 -33 -15 -35 -15 -35 3 0 8 7 15 15 15 8 0 15
7 15 16 0 19 24 13 28 -8z m-213 -47 c-3 -12 -13 -21 -21 -21 -18 0 -18 9 3
32 20 22 27 17 18 -11z m1991 4 c18 -14 18 -14 -8 -15 -27 0 -43 12 -31 24 9
9 17 8 39 -9z m-1646 -5 c0 -5 9 -10 20 -10 11 0 20 -4 20 -9 0 -10 -67 -7
-77 2 -8 9 7 27 23 27 8 0 14 -4 14 -10z m589 -6 c44 -9 30 -21 -25 -22 -32
-1 -51 -7 -60 -19 -13 -17 -14 -17 -7 2 14 45 29 51 92 39z m606 -24 c3 -5 1
-10 -4 -10 -6 0 -11 5 -11 10 0 6 2 10 4 10 3 0 8 -4 11 -10z m495 -1 c0 -23
-22 -49 -41 -49 -20 0 -20 1 3 29 24 31 38 38 38 20z m-680 -16 c0 -28 120
-57 135 -33 3 6 10 10 16 10 5 0 9 -4 9 -10 0 -5 -6 -10 -13 -10 -7 0 -20 -9
-30 -20 -18 -21 -52 -26 -77 -10 -8 5 -10 10 -5 10 6 0 2 7 -8 15 -22 16 -47
10 -47 -12 0 -9 8 -22 18 -29 13 -11 14 -13 2 -13 -22 1 -67 17 -52 18 8 1 13
12 11 29 -2 35 9 62 27 62 8 0 14 -3 14 -7z m-1328 -9 c4 -3 -5 -22 -19 -42
-17 -26 -23 -47 -21 -69 2 -18 1 -33 -3 -33 -3 0 -6 -17 -5 -37 1 -37 2 -38
36 -35 19 2 44 -3 54 -11 14 -10 29 -12 48 -6 16 4 30 4 33 -2 4 -5 2 -9 -3
-9 -5 0 -12 -8 -14 -18 -4 -15 -16 -19 -56 -20 -43 -1 -52 2 -57 19 -4 12 -14
19 -23 17 -13 -3 -16 -13 -14 -46 2 -31 -1 -42 -12 -42 -14 0 -29 61 -17 70 6
5 7 14 3 47 -1 7 -12 21 -24 33 l-22 20 22 16 c12 8 22 25 22 38 0 13 7 38 16
57 27 55 41 68 56 53z m916 -53 c-41 -47 -44 -48 -60 -31 -14 15 -15 22 -5 44
9 19 21 26 52 29 22 2 44 4 48 5 5 1 -11 -20 -35 -47z m-756 22 c-10 -10 -27
-23 -38 -29 -10 -6 -19 -20 -19 -30 0 -15 7 -19 34 -19 19 0 36 -6 39 -13 5
-16 -84 -10 -100 6 -13 13 26 76 57 91 33 16 47 13 27 -6z m161 -19 c17 -6 10
-54 -8 -54 -40 0 -57 24 -33 48 13 13 20 14 41 6z m662 -4 c-7 -11 12 -40 26
-40 15 0 39 32 33 42 -5 8 1 9 17 5 13 -4 29 -7 35 -7 7 0 14 -9 17 -20 3 -11
12 -20 21 -20 8 0 20 9 26 20 14 26 75 28 84 4 4 -9 5 -17 4 -18 -26 -10 -43
-27 -43 -42 0 -24 42 -32 51 -10 7 19 48 22 42 4 -3 -7 -13 -15 -24 -17 -10
-1 -26 -9 -34 -16 -8 -7 -25 -15 -37 -18 -18 -4 -22 0 -25 22 -3 23 -8 26 -50
29 -44 3 -48 5 -48 28 0 32 -30 30 -45 -3 -15 -35 -62 -43 -49 -8 3 8 -6 21
-21 31 l-26 17 23 12 c30 17 30 17 23 5z m1230 0 c-3 -5 -11 -10 -16 -10 -6 0
-7 5 -4 10 3 6 11 10 16 10 6 0 7 -4 4 -10z m15 -40 c0 -5 -4 -10 -10 -10 -5
0 -10 5 -10 10 0 6 5 10 10 10 6 0 10 -4 10 -10z m-2347 -30 c3 -11 1 -20 -4
-20 -5 0 -9 9 -9 20 0 11 2 20 4 20 2 0 6 -9 9 -20z m1047 -29 c0 -9 5 -22 12
-29 13 -13 0 -16 -19 -4 -11 7 -16 26 -14 50 2 19 21 4 21 -17z m1176 -25 c-8
-15 -17 -23 -20 -17 -4 5 1 19 11 30 22 27 27 21 9 -13z m-991 -6 c-3 -5 -11
-10 -16 -10 -6 0 -7 5 -4 10 3 6 11 10 16 10 6 0 7 -4 4 -10z m1135 -10 c12
-8 11 -10 -8 -10 -12 0 -25 -7 -28 -15 -4 -8 -10 -13 -14 -10 -5 3 -15 -1 -23
-9 -11 -11 -17 -12 -26 -3 -16 16 -14 27 7 27 9 1 28 7 42 15 30 17 31 17 50
5z m-177 -33 c3 -7 -3 -13 -14 -13 -10 0 -21 6 -23 13 -3 8 2 13 13 13 10 0
21 -6 24 -13z m-1870 -30 c-3 -15 -11 -26 -17 -24 -6 2 -10 11 -8 21 2 9 -3
16 -10 17 -7 1 -2 4 12 8 14 4 26 7 27 7 1 -1 -1 -14 -4 -29z m894 27 c-3 -3
-12 -4 -19 -1 -8 3 -5 6 6 6 11 1 17 -2 13 -5z m-1307 -55 c0 -6 -4 -7 -10 -4
-5 3 -10 11 -10 16 0 6 5 7 10 4 6 -3 10 -11 10 -16z m510 11 c12 -8 12 -10
-2 -15 -9 -3 -18 -19 -22 -36 -7 -37 -25 -38 -21 -1 3 32 14 62 24 62 3 0 13
-4 21 -10z m1786 -58 c-3 -3 -18 0 -33 7 l-26 12 29 18 c29 18 29 18 32 -7 2
-13 1 -26 -2 -30z m-2286 12 c0 -8 -4 -12 -10 -9 -5 3 -10 10 -10 16 0 5 5 9
10 9 6 0 10 -7 10 -16z m623 -34 c31 -15 31 -30 -1 -45 -25 -11 -28 -25 -10
-43 23 -23 55 -14 67 18 11 34 16 35 51 15 17 -10 20 -14 9 -15 -21 0 -33 -30
-19 -44 5 -5 10 -16 10 -23 0 -10 -7 -10 -32 2 -18 7 -45 16 -60 19 -27 6 -88
51 -88 66 0 5 10 10 22 12 28 4 36 28 10 28 -11 0 -22 -4 -24 -9 -1 -5 -11 -4
-21 4 -15 11 -16 17 -6 38 12 26 12 26 38 9 14 -10 38 -24 54 -32z m1457 5 c0
-8 -6 -15 -14 -15 -20 0 -29 17 -14 23 22 9 28 7 28 -8z m270 -5 c0 -5 -4 -10
-10 -10 -5 0 -10 5 -10 10 0 6 5 10 10 10 6 0 10 -4 10 -10z m-2430 -15 c0 -8
-4 -15 -10 -15 -5 0 -10 7 -10 15 0 8 5 15 10 15 6 0 10 -7 10 -15z m2290 5
c0 -5 -7 -10 -16 -10 -8 0 -12 5 -9 10 3 6 10 10 16 10 5 0 9 -4 9 -10z m-200
-13 c0 -17 -29 -56 -30 -39 0 14 -36 16 -45 2 -3 -5 -14 -10 -24 -10 -10 0
-26 -11 -34 -24 -9 -13 -24 -23 -34 -22 -23 1 -31 -42 -9 -50 9 -3 13 -10 10
-15 -3 -5 -10 -7 -15 -3 -5 3 -17 0 -25 -7 -13 -10 -13 -14 1 -29 14 -16 14
-18 0 -24 -11 -4 -14 -13 -9 -31 7 -29 -5 -33 -26 -7 -16 17 -15 50 1 67 14
14 11 72 -5 78 -21 8 -36 -13 -37 -52 l-2 -36 -6 34 c-8 43 -42 52 -66 19 -25
-37 -19 -56 18 -60 20 -2 32 -8 32 -18 0 -25 -75 -13 -103 16 -27 28 -38 29
-80 8 -36 -17 -44 -54 -13 -54 10 0 21 6 24 14 5 13 57 11 57 -3 -1 -27 -44
-45 -70 -29 -16 10 -22 8 -39 -13 -11 -13 -18 -30 -16 -36 2 -7 0 -13 -6 -13
-6 0 -13 9 -16 20 -6 24 -26 26 -43 5 -19 -23 -35 -18 -61 20 -27 39 -31 41
-49 20 -10 -13 -10 -19 3 -33 19 -21 6 -42 -24 -42 -22 0 -31 -13 -23 -33 7
-20 88 -28 138 -13 28 8 51 9 73 3 18 -5 39 -7 47 -4 22 9 8 37 -17 37 -17 0
-13 5 16 20 47 25 61 26 46 1 -7 -10 -9 -26 -6 -35 9 -22 38 -20 44 4 8 28 23
25 23 -5 0 -18 7 -28 26 -36 32 -12 65 -3 58 15 -3 8 4 16 16 19 18 4 20 10
14 29 -4 12 -14 28 -22 34 -8 6 -12 16 -8 22 10 17 36 15 36 -2 0 -14 26 -28
44 -23 5 1 12 -8 17 -20 10 -28 49 -31 56 -4 8 32 47 42 119 31 61 -10 66 -9
83 11 15 18 21 20 39 10 12 -6 22 -8 22 -4 0 4 5 0 11 -9 11 -20 44 -24 54 -8
4 6 15 8 26 5 31 -10 39 3 24 38 -17 42 -51 45 -47 5 2 -22 -1 -28 -17 -28
-23 0 -51 25 -51 46 0 10 8 15 23 13 38 -4 79 12 73 28 -8 21 12 53 33 53 14
0 17 -6 14 -24 -3 -15 4 -32 21 -51 33 -36 33 -61 1 -69 -28 -7 -33 -31 -9
-44 14 -8 10 -12 -20 -22 -26 -8 -36 -17 -34 -28 3 -13 12 -16 40 -14 35 3 37
2 40 -30 2 -25 8 -33 23 -33 16 0 20 7 21 34 0 29 6 37 32 49 23 11 32 22 32
40 0 22 -3 24 -32 19 -18 -3 -43 -8 -55 -12 -18 -6 -21 -4 -16 14 4 14 13 21
29 21 36 0 38 21 10 71 -34 58 -33 75 1 73 31 -1 51 -38 32 -60 -12 -15 -4
-34 15 -34 7 0 23 11 35 24 21 22 22 29 12 57 -7 20 -8 36 -2 42 5 5 7 15 5
21 -3 7 4 12 16 12 13 0 16 -4 10 -10 -15 -15 -12 -36 6 -36 11 0 15 -6 11
-19 -2 -10 -1 -25 4 -33 6 -11 1 -18 -19 -27 -26 -12 -26 -13 -7 -27 11 -8 31
-14 45 -13 39 2 43 0 30 -16 -7 -8 -16 -12 -21 -10 -4 3 -13 -4 -19 -15 -6
-11 -15 -20 -21 -20 -6 0 -8 4 -5 9 3 5 -1 14 -10 22 -12 10 -18 9 -31 -4 -16
-15 -15 -18 7 -42 36 -39 131 -48 99 -9 -9 11 -8 15 2 18 166 49 194 51 194
16 0 -8 6 -14 13 -12 6 1 12 -2 12 -8 0 -5 -15 -10 -32 -9 -18 0 -27 3 -21 6
19 7 -3 44 -22 37 -11 -5 -13 -16 -8 -47 5 -35 4 -39 -11 -34 -10 4 -19 1 -22
-8 -7 -17 -34 -21 -34 -5 0 19 -45 10 -58 -11 -11 -18 -11 -24 3 -39 15 -16
14 -18 -4 -23 -11 -2 -21 -15 -23 -28 -3 -20 -9 -24 -51 -26 -27 -2 -57 -8
-67 -13 -10 -6 -29 -10 -41 -10 -12 0 -32 -8 -43 -17 -20 -17 -20 -17 -6 1 13
16 12 20 -3 31 -9 7 -17 17 -17 22 0 18 -27 34 -44 27 -22 -9 -20 -31 4 -39
11 -3 20 -15 20 -24 0 -15 -8 -19 -38 -19 -20 0 -50 -5 -65 -11 -36 -14 -37
-14 -37 5 0 13 -7 15 -30 10 -28 -5 -31 -3 -37 25 -3 17 -13 33 -22 37 -9 3
-21 12 -27 20 -6 8 -16 12 -22 8 -14 -9 -16 -36 -3 -36 5 0 18 -17 28 -37 12
-25 25 -38 38 -38 12 0 25 -11 33 -29 l14 -28 71 7 c39 3 85 14 102 23 16 8
55 17 85 19 30 2 73 6 95 8 129 16 145 17 145 6 0 -7 -7 -14 -15 -17 -8 -4
-15 -11 -15 -18 0 -6 -18 -18 -39 -27 -38 -16 -39 -16 -44 3 -4 12 -12 18 -24
16 -24 -4 -29 -36 -6 -45 10 -3 22 -12 26 -20 4 -7 15 -13 23 -13 9 0 14 -7
12 -17 -3 -13 -12 -17 -33 -15 -17 2 -31 8 -33 13 -5 13 -29 11 -52 -3 -23
-15 -37 -4 -21 16 20 23 3 39 -35 33 -20 -4 -34 -1 -37 6 -3 9 -9 9 -23 -1
-11 -6 -28 -16 -39 -21 -12 -5 -27 -16 -34 -25 -20 -24 -30 -20 -28 12 l2 27
-75 0 c-64 0 -75 -2 -75 -17 0 -25 -19 -40 -54 -44 -21 -2 -31 1 -31 10 0 24
-29 26 -63 6 -27 -17 -50 -20 -144 -20 -80 0 -113 4 -116 13 -3 9 -9 9 -27 -1
-19 -11 -25 -11 -39 2 -23 20 -27 20 -51 -4 -14 -14 -33 -20 -65 -20 -38 0
-45 3 -45 20 0 13 -7 20 -20 20 -13 0 -20 -7 -20 -20 0 -24 -32 -27 -50 -5
-16 19 -46 19 -53 1 -4 -10 -21 -14 -51 -14 -26 0 -44 4 -40 9 3 5 16 9 28 9
20 0 25 7 30 41 4 23 4 44 1 47 -7 8 -45 -29 -42 -41 1 -7 -8 -13 -21 -15 -13
-2 -28 -14 -34 -28 l-11 -24 -356 6 c-196 4 -398 6 -449 5 -117 -2 -131 2
-124 34 4 21 0 26 -27 31 -17 4 -31 10 -31 15 0 5 7 6 15 3 8 -4 17 1 21 10 3
9 17 16 31 16 20 0 23 -4 18 -20 -7 -22 11 -53 26 -44 13 8 11 44 -3 44 -6 0
-9 3 -6 6 7 7 125 -15 155 -29 12 -5 28 -7 36 -4 8 3 19 1 25 -5 8 -8 15 -8
26 1 20 17 9 41 -19 41 -13 0 -25 7 -29 15 -4 11 -13 14 -30 9 -30 -7 -68 12
-64 33 3 18 -32 44 -38 28 -14 -34 -21 -37 -65 -24 -41 11 -146 49 -249 90
-49 19 -60 40 -35 65 11 11 14 25 10 41 -5 20 -2 24 12 21 13 -2 17 -10 14
-28 -9 -57 -7 -65 19 -65 18 0 26 6 28 23 2 14 10 22 22 22 28 0 32 -14 9 -39
-25 -27 -18 -54 13 -49 18 2 27 15 40 58 12 36 15 57 8 64 -15 15 -12 26 9 26
22 0 37 30 20 40 -17 11 -49 0 -49 -16 0 -20 -10 -17 -55 17 -34 26 -36 30
-14 24 18 -4 32 -1 44 11 11 11 34 18 59 19 22 0 46 4 53 8 16 10 42 -2 53
-24 16 -29 42 -13 35 21 -5 21 0 35 16 54 30 34 45 33 53 -4 3 -17 14 -33 23
-36 10 -3 31 -12 46 -20 16 -7 42 -14 57 -14 26 0 28 2 21 23 -4 12 -27 32
-49 45 -30 17 -42 30 -42 47 0 23 0 23 45 6 29 -10 45 -22 45 -32 0 -19 26
-33 35 -19 9 15 25 12 25 -4 0 -20 25 -27 71 -20 25 4 40 13 44 25 7 20 45 27
45 9 0 -6 -8 -10 -17 -8 -20 4 -27 -20 -13 -42 9 -13 12 -13 24 2 12 16 14 16
36 1 13 -9 32 -25 43 -36 10 -10 25 -16 34 -12 9 3 25 -3 38 -15 26 -24 146
-70 184 -70 14 0 33 5 41 10 13 9 11 14 -12 33 -16 13 -28 28 -28 34 0 7 12
13 28 15 19 2 28 9 30 26 5 31 18 27 32 -10 6 -18 16 -41 21 -50 13 -26 12
-28 -16 -28 -19 0 -25 -5 -25 -21 0 -16 5 -20 20 -16 11 3 23 1 26 -4 10 -17
33 -9 40 13 4 14 1 25 -8 32 -23 17 -5 59 21 51 11 -3 25 1 34 10 9 8 25 15
36 15 23 0 24 1 15 24 -4 11 -13 14 -30 10 -20 -5 -24 -3 -24 18 0 14 -3 28
-7 31 -10 10 -33 -13 -33 -33 0 -32 -30 -32 -60 1 -31 35 -60 34 -60 -1 0 -17
-5 -20 -20 -16 -11 3 -28 8 -38 11 -10 3 -27 -1 -37 -9 -18 -13 -17 -15 15
-35 21 -12 28 -21 18 -21 -9 0 -18 -5 -20 -11 -3 -8 -18 -9 -44 -5 -36 6 -40
10 -36 31 3 18 -4 32 -27 53 -34 31 -34 62 0 62 10 0 24 9 31 20 15 24 28 26
28 5 0 -8 -4 -15 -10 -15 -5 0 -10 -11 -10 -25 0 -35 31 -33 53 4 16 28 20 29
80 26 68 -4 198 -21 235 -30 13 -3 28 -2 35 2 7 4 21 8 32 9 41 2 111 14 145
24 36 10 46 6 52 -23 5 -27 23 -20 21 9 -1 19 3 24 22 24 13 0 27 5 30 10 10
16 47 12 62 -7 13 -17 14 -16 8 3 -5 21 13 34 55 38 29 3 99 27 104 35 3 5 28
11 55 15 28 4 53 11 56 16 9 15 35 12 35 -3z m-1943 -17 c14 -11 40 -20 57
-20 18 0 41 -7 52 -15 10 -8 34 -15 53 -15 33 0 34 0 16 -20 -21 -23 -45 -26
-45 -6 0 7 -7 19 -15 26 -13 11 -20 11 -40 0 -22 -12 -29 -10 -64 14 -22 15
-42 34 -45 42 -7 19 1 18 31 -6z m2303 -9 c0 -11 -42 -43 -48 -37 -2 2 3 13
10 25 13 21 38 29 38 12z m-2418 -41 c4 -46 -16 -57 -25 -13 -4 20 7 49 19 53
1 0 4 -18 6 -40z m2240 24 c9 -3 19 0 23 6 8 12 35 13 35 1 0 -5 -13 -12 -30
-16 -16 -4 -30 -11 -30 -16 0 -15 -27 -10 -34 6 -3 8 -15 15 -26 15 -11 0 -20
5 -20 11 0 10 31 7 82 -7z m436 -17 c6 -6 12 -28 14 -47 2 -28 7 -35 25 -35
35 -1 37 -13 3 -20 -25 -5 -31 -11 -27 -26 3 -12 0 -19 -8 -19 -8 0 -18 -8
-24 -17 -8 -15 -11 -15 -27 -3 -9 8 -25 14 -35 12 -23 -4 -34 15 -19 33 9 11
7 16 -11 25 -21 12 -21 12 11 41 17 16 30 36 27 43 -3 8 -3 17 0 20 11 11 60
6 71 -7z m-1762 -23 c-3 -9 -6 -22 -6 -30 0 -8 -3 -13 -7 -13 -22 4 -33 -3
-33 -20 0 -14 -7 -19 -25 -17 -27 1 -39 23 -29 50 7 18 24 22 24 5 0 -19 45
-4 55 19 11 25 31 31 21 6z m-1001 -34 c-5 -8 -11 -6 -20 7 -17 23 -7 39 12
20 9 -8 12 -20 8 -27z m2166 17 c-13 -13 -26 -3 -16 12 3 6 11 8 17 5 6 -4 6
-10 -1 -17z m88 9 c10 -11 8 -16 -9 -21 -26 -8 -33 -3 -24 19 8 20 18 20 33 2z
m-1596 -11 c1 -5 -6 -11 -15 -13 -11 -2 -18 3 -18 13 0 17 30 18 33 0z m-496
-12 c2 -6 -6 -14 -18 -18 -27 -9 -47 16 -21 27 21 8 35 5 39 -9z m1923 -14 c0
-4 -7 -9 -15 -13 -8 -3 -15 -12 -15 -21 0 -8 7 -15 15 -15 8 0 15 -4 15 -10 0
-5 -12 -10 -26 -10 -20 0 -25 4 -20 16 3 8 1 24 -5 36 -17 32 -5 49 25 35 14
-7 26 -15 26 -18z m-1664 -16 c-10 -10 -19 5 -10 18 6 11 8 11 12 0 2 -7 1
-15 -2 -18z m1879 0 c-7 -32 -19 -47 -33 -42 -5 2 -3 18 5 37 16 40 38 44 28
5z m210 17 c3 -5 1 -10 -4 -10 -6 0 -11 5 -11 10 0 6 2 10 4 10 3 0 8 -4 11
-10z m-2441 -19 c3 -5 -1 -14 -9 -21 -8 -7 -15 -19 -15 -27 0 -8 -4 -12 -9 -9
-5 4 -5 19 2 36 12 30 21 37 31 21z m2136 -7 c0 -2 -7 -4 -15 -4 -8 0 -15 4
-15 10 0 5 7 7 15 4 8 -4 15 -8 15 -10z m737 -21 c-3 -2 -16 -1 -29 3 l-23 8
25 6 c23 6 39 -4 27 -17z m-812 -3 c3 -5 -3 -10 -15 -10 -12 0 -18 5 -15 10 3
6 10 10 15 10 5 0 12 -4 15 -10z m-1939 -27 c3 -19 -1 -23 -21 -23 -18 0 -25
5 -25 18 0 39 41 43 46 5z m1806 -23 c12 -13 14 -21 6 -26 -6 -4 -17 1 -25 11
-26 36 -10 49 19 15z m150 -52 c-18 -18 -25 -2 -17 39 l8 38 10 -33 c7 -23 7
-36 -1 -44z m842 46 c4 -10 1 -14 -6 -12 -15 5 -23 28 -10 28 5 0 13 -7 16
-16z m-64 -5 c0 -6 -5 -19 -11 -30 -15 -28 -29 -14 -16 16 12 25 27 33 27 14z
m-2980 -38 c-6 -12 -20 -21 -30 -21 -14 0 -20 -7 -20 -21 0 -11 -4 -17 -10
-14 -5 3 -10 18 -10 32 0 18 4 24 15 20 7 -3 24 2 37 13 28 22 34 19 18 -9z
m97 -51 c-13 -34 -22 -38 -31 -14 -4 10 1 22 11 30 28 21 32 17 20 -16z m2943
16 c0 -3 -4 -8 -10 -11 -5 -3 -10 -1 -10 4 0 6 5 11 10 11 6 0 10 -2 10 -4z
m-3030 -26 c0 -5 11 -12 25 -16 15 -4 25 -13 25 -24 0 -11 5 -22 11 -26 7 -4
7 -10 1 -16 -14 -14 -32 -1 -32 21 0 22 -25 45 -39 37 -10 -7 -23 19 -14 28
10 9 23 7 23 -4z m1838 -25 c-3 -3 -9 2 -12 12 -6 14 -5 15 5 6 7 -7 10 -15 7
-18z m1072 -35 c0 -5 -5 -10 -11 -10 -5 0 -7 5 -4 10 3 6 8 10 11 10 2 0 4 -4
4 -10z m-130 -20 c0 -5 -5 -10 -11 -10 -5 0 -7 5 -4 10 3 6 8 10 11 10 2 0 4
-4 4 -10z m-2783 -37 c21 -10 42 -24 46 -30 4 -7 16 -13 27 -13 13 0 17 -5 13
-20 -4 -15 0 -20 14 -20 11 0 23 -11 29 -29 8 -21 19 -30 42 -33 35 -5 53 7
45 28 -4 10 0 12 11 8 18 -7 21 -20 6 -29 -20 -12 -10 -35 15 -35 28 0 30 -7
11 -33 -12 -16 -16 -16 -48 -2 -38 15 -48 12 -48 -17 0 -21 -8 -22 -34 -3 -18
14 -17 24 6 57 10 14 10 20 0 30 -18 18 -46 -2 -52 -38 -6 -35 -20 -36 -37 -3
-11 21 -10 25 9 29 27 7 33 23 13 40 -8 7 -15 21 -15 31 0 24 -26 25 -39 2 -9
-15 -10 -15 -11 -2 0 8 5 20 12 27 8 8 8 15 -2 27 -18 22 -41 19 -48 -7 -6
-23 -6 -23 -12 2 -6 23 -3 50 6 50 2 0 20 -8 41 -17z m-142 -54 c-31 -12 -34
-11 -28 11 4 17 8 18 26 8 21 -11 21 -11 2 -19z m81 -14 c-3 -9 0 -15 9 -15
14 0 19 -11 16 -37 -1 -6 3 -14 9 -18 5 -3 10 -15 10 -25 0 -10 7 -23 16 -28
11 -6 13 -11 5 -16 -6 -4 -11 -2 -11 3 0 6 -11 11 -25 11 -26 0 -33 18 -14 37
14 14 -5 53 -26 53 -9 0 -15 10 -15 25 0 16 6 25 16 25 10 0 14 -6 10 -15z
m3024 -20 c0 -28 -15 -34 -24 -9 -10 25 -7 34 9 34 9 0 15 -9 15 -25z m-3130
0 c0 -8 -4 -15 -9 -15 -13 0 -22 16 -14 24 11 11 23 6 23 -9z m3060 5 c0 -5
-4 -10 -10 -10 -5 0 -10 5 -10 10 0 6 5 10 10 10 6 0 10 -4 10 -10z m165 0
c11 -18 -5 -31 -26 -20 -11 6 -17 15 -14 21 8 12 32 12 40 -1z m60 -10 c3 -5
-1 -10 -10 -10 -9 0 -13 5 -10 10 3 6 8 10 10 10 2 0 7 -4 10 -10z m-210 -30
c3 -5 1 -10 -4 -10 -6 0 -11 5 -11 10 0 6 2 10 4 10 3 0 8 -4 11 -10z m-45
-20 c-20 -13 -40 -13 -40 0 0 6 12 10 28 10 21 0 24 -2 12 -10z m-2564 -27
c-10 -10 -19 5 -10 18 6 11 8 11 12 0 2 -7 1 -15 -2 -18z m-409 -10 c-5 -39
-27 -42 -24 -4 1 17 8 31 15 31 8 0 11 -10 9 -27z m3193 13 c0 -15 -24 -28
-34 -19 -13 14 -5 33 14 33 11 0 20 -6 20 -14z m-3130 -50 c0 -8 -4 -18 -10
-21 -5 -3 -10 3 -10 14 0 12 5 21 10 21 6 0 10 -6 10 -14z m2824 5 c6 -9 -54
-25 -62 -16 -3 2 6 9 19 14 31 13 37 13 43 2z m-2466 -28 c-4 -20 -68 -32 -68
-13 0 7 8 9 20 5 13 -4 22 -1 26 9 8 22 26 20 22 -1z m2699 2 c8 -22 -6 -33
-17 -15 -13 20 -12 30 0 30 6 0 13 -7 17 -15z m-3232 -11 c-9 -9 -18 -14 -21
-11 -9 9 6 27 22 27 13 0 13 -2 -1 -16z m2751 1 c18 -13 17 -14 -18 -15 -37 0
-51 13 -25 23 19 8 22 8 43 -8z m554 -1 c0 -8 -5 -12 -10 -9 -6 4 -8 11 -5 16
9 14 15 11 15 -7z m-785 -4 c4 -6 -5 -10 -20 -10 -15 0 -24 4 -20 10 3 6 12
10 20 10 8 0 17 -4 20 -10z m515 -8 c0 -4 -9 -8 -20 -9 -11 -1 -20 2 -20 8 0
5 9 9 20 9 11 0 20 -4 20 -8z m120 -2 c0 -5 -4 -10 -10 -10 -5 0 -10 5 -10 10
0 6 5 10 10 10 6 0 10 -4 10 -10z"/>
<path d="M2211 3911 c-10 -6 -10 -10 -1 -16 6 -4 10 -19 9 -33 -4 -37 7 -52
40 -52 31 0 51 16 51 42 0 10 4 18 9 18 15 0 42 31 36 41 -10 16 -40 10 -58
-11 -9 -11 -21 -20 -26 -20 -5 0 -11 9 -14 20 -5 21 -23 25 -46 11z"/>
<path d="M2067 3794 c-4 -4 -7 -20 -7 -36 0 -25 4 -29 23 -26 17 2 22 10 22
33 0 29 -22 45 -38 29z"/>
<path d="M2065 3580 c-4 -6 -1 -17 5 -26 14 -16 40 -2 40 22 0 16 -36 19 -45
4z"/>
<path d="M2126 3471 c-10 -16 6 -42 23 -39 9 2 17 13 19 26 3 16 -2 22 -17 22
-11 0 -22 -4 -25 -9z"/>
<path d="M2383 3438 c2 -7 10 -13 17 -13 7 0 15 6 18 13 2 7 -5 12 -18 12 -13
0 -20 -5 -17 -12z"/>
<path d="M2230 3390 c0 -15 7 -20 25 -20 18 0 25 5 25 20 0 15 -7 20 -25 20
-18 0 -25 -5 -25 -20z"/>
<path d="M2594 3399 c-3 -6 -2 -15 4 -21 15 -15 46 -5 50 15 3 12 -3 17 -22
17 -14 0 -28 -5 -32 -11z"/>
<path d="M1949 3388 c-1 -7 0 -17 1 -23 1 -5 3 -21 4 -35 1 -17 7 -25 19 -24
70 3 77 5 77 19 0 10 -11 15 -35 15 -33 0 -48 14 -23 22 6 2 9 12 5 21 -7 20
-46 23 -48 5z"/>
<path d="M2547 3353 c-16 -15 -5 -33 19 -33 20 0 25 4 20 16 -3 9 -6 18 -6 20
0 7 -26 5 -33 -3z"/>
<path d="M1854 3339 c-3 -6 -16 -8 -27 -5 -25 6 -47 -10 -47 -34 0 -26 29 -29
78 -8 29 13 42 25 42 38 0 22 -34 28 -46 9z"/>
<path d="M2087 3343 c-14 -13 -6 -23 18 -23 28 0 34 15 9 24 -19 7 -19 7 -27
-1z"/>
<path d="M2275 3320 c-17 -19 -17 -20 6 -28 43 -16 82 6 59 33 -17 21 -44 19
-65 -5z"/>
<path d="M2387 3303 c-14 -13 -6 -33 13 -33 13 0 20 7 20 20 0 19 -20 27 -33
13z"/>
<path d="M2497 3279 c-23 -13 -13 -29 19 -29 26 0 27 1 18 24 -7 18 -12 19
-37 5z"/>
<path d="M2097 3268 c-24 -13 -23 -68 1 -68 17 0 42 36 42 59 0 14 -25 20 -43
9z"/>
<path d="M1893 3263 c-18 -7 -16 -28 3 -43 12 -11 18 -10 31 3 13 13 14 19 3
31 -13 17 -17 18 -37 9z"/>
<path d="M2010 3200 c0 -28 30 -38 46 -15 17 23 9 35 -22 35 -17 0 -24 -5 -24
-20z"/>
<path d="M2434 3180 c-25 -10 -39 -28 -30 -38 9 -8 89 -3 99 7 4 4 5 15 1 24
-7 18 -36 21 -70 7z"/>
<path d="M1935 3138 c-11 -6 -27 -14 -35 -18 -22 -10 -25 -40 -4 -40 34 0 94
33 94 52 0 20 -24 23 -55 6z"/>
<path d="M2024 3115 c-9 -22 22 -53 37 -38 15 15 7 47 -14 51 -9 2 -20 -4 -23
-13z"/>
<path d="M2746 2798 c-21 -29 -20 -38 2 -38 26 1 55 27 49 45 -9 22 -33 19
-51 -7z"/>
<path d="M2332 2803 c-45 -4 -63 -23 -44 -46 16 -19 141 -13 161 8 15 15 14
17 -3 31 -20 14 -28 14 -114 7z"/>
<path d="M2587 2783 c-17 -16 -3 -32 41 -46 46 -16 71 -10 57 13 -11 18 -88
44 -98 33z"/>
<path d="M2083 2738 c-35 -9 -54 -45 -32 -59 22 -14 34 -11 58 15 31 33 18 56
-26 44z"/>
<path d="M2774 2735 c-8 -21 4 -35 31 -35 28 0 42 17 26 33 -17 17 -51 19 -57
2z"/>
<path d="M2915 2720 c-3 -5 -19 -7 -35 -3 -25 4 -30 2 -30 -14 0 -10 13 -26
29 -36 27 -16 29 -16 51 3 12 10 27 21 33 23 6 2 8 11 4 20 -7 18 -42 23 -52
7z"/>
<path d="M1870 2652 c-22 -11 -35 -24 -35 -37 0 -28 29 -30 70 -5 37 23 45 44
19 54 -20 8 -13 9 -54 -12z"/>
<path d="M1784 2649 c-10 -17 13 -36 27 -22 12 12 4 33 -11 33 -5 0 -12 -5
-16 -11z"/>
<path d="M1467 2316 c-31 -24 -15 -53 23 -41 23 7 26 27 7 43 -8 7 -17 7 -30
-2z"/>
<path d="M2872 2178 c2 -13 11 -24 21 -26 22 -4 35 27 16 39 -25 16 -41 10
-37 -13z"/>
<path d="M1752 2168 c-16 -16 -15 -33 2 -47 17 -14 49 13 44 38 -4 20 -30 25
-46 9z"/>
<path d="M2958 2102 c-16 -32 -13 -52 9 -52 10 0 12 -6 8 -19 -4 -14 0 -21 14
-26 27 -8 44 3 38 25 -5 18 15 41 46 53 23 9 21 34 -3 42 -14 4 -27 -1 -44
-19 -25 -28 -47 -36 -25 -10 10 13 10 17 -2 25 -22 13 -26 11 -41 -19z"/>
<path d="M1720 2081 c0 -9 24 -21 41 -21 5 0 9 7 9 15 0 9 -9 15 -25 15 -14 0
-25 -4 -25 -9z"/>
<path d="M1673 2073 c-7 -2 -13 -14 -13 -25 0 -15 4 -18 23 -12 29 9 31 10 24
29 -7 15 -13 17 -34 8z"/>
<path d="M2837 2044 c-16 -16 -6 -35 16 -32 12 2 22 10 22 18 0 16 -26 25 -38
14z"/>
<path d="M1777 2034 c-11 -11 3 -24 24 -24 12 0 19 5 17 13 -5 14 -31 21 -41
11z"/>
<path d="M2872 1977 c-6 -7 -7 -18 -3 -25 11 -18 41 -4 41 19 0 22 -22 25 -38
6z"/>
<path d="M1902 1923 c4 -22 43 -25 43 -3 0 8 -11 16 -23 18 -19 3 -23 0 -20
-15z"/>
<path d="M2862 1909 c2 -7 10 -15 17 -17 8 -3 12 1 9 9 -2 7 -10 15 -17 17 -8
3 -12 -1 -9 -9z"/>
<path d="M1812 1893 c2 -10 10 -18 18 -18 8 0 16 8 18 18 2 12 -3 17 -18 17
-15 0 -20 -5 -18 -17z"/>
<path d="M2752 1883 c2 -9 14 -17 28 -19 14 -1 19 0 13 2 -7 3 -13 12 -13 20
0 8 -7 14 -16 14 -9 0 -14 -7 -12 -17z"/>
<path d="M1990 1880 c-11 -7 -12 -12 -3 -21 15 -15 43 -5 43 16 0 17 -18 19
-40 5z"/>
<path d="M2820 1860 c0 -5 5 -10 10 -10 6 0 10 5 10 10 0 6 -4 10 -10 10 -5 0
-10 -4 -10 -10z"/>
<path d="M2680 1796 c0 -18 16 -29 30 -21 13 8 1 35 -16 35 -8 0 -14 -6 -14
-14z"/>
<path d="M2566 1782 c-10 -10 -6 -41 6 -48 10 -6 38 20 38 37 0 9 -37 18 -44
11z"/>
<path d="M2090 1736 c0 -18 30 -30 43 -17 5 5 6 14 3 20 -10 16 -46 13 -46 -3z"/>
<path d="M2860 1660 c0 -5 5 -10 10 -10 6 0 10 5 10 10 0 6 -4 10 -10 10 -5 0
-10 -4 -10 -10z"/>
<path d="M2457 1550 c-18 -21 -23 -50 -9 -50 4 0 8 -12 7 -27 0 -18 6 -29 18
-31 20 -4 24 27 5 46 -8 8 -5 16 13 30 20 17 21 22 10 36 -17 21 -23 20 -44
-4z"/>
<path d="M2386 1504 c-20 -19 -20 -48 -1 -64 17 -14 33 -6 45 24 8 22 -4 56
-20 56 -5 0 -16 -7 -24 -16z"/>
<path d="M1443 1444 c-8 -21 13 -42 28 -27 13 13 5 43 -11 43 -6 0 -13 -7 -17
-16z"/>
<path d="M1494 1445 c-7 -18 3 -35 21 -35 21 0 28 19 15 35 -16 19 -29 19 -36
0z"/>
<path d="M1587 1453 c-13 -12 -7 -44 9 -50 21 -8 35 16 23 39 -10 19 -21 23
-32 11z"/>
<path d="M1706 1424 c-9 -23 14 -46 34 -34 11 7 12 14 4 27 -15 24 -30 27 -38
7z"/>
<path d="M1230 1411 c0 -19 23 -35 34 -24 14 15 5 43 -14 43 -13 0 -20 -7 -20
-19z"/>
<path d="M1283 1404 c-6 -16 12 -34 35 -34 15 0 16 22 0 38 -16 16 -27 15 -35
-4z"/>
<path d="M3125 1389 c-8 -24 9 -41 32 -32 18 7 16 40 -3 47 -22 8 -22 8 -29
-15z"/>
<path d="M3637 1394 c-14 -14 -6 -24 19 -24 16 0 24 5 22 13 -5 14 -31 21 -41
11z"/>
<path d="M1570 1365 c-23 -25 -22 -55 3 -55 16 0 47 31 47 47 0 6 -6 16 -13
22 -11 8 -19 5 -37 -14z"/>
<path d="M1827 1384 c-16 -16 -7 -44 14 -44 15 0 20 5 17 22 -3 22 -19 33 -31
22z"/>
<path d="M1895 1370 c-9 -10 -15 -26 -12 -35 14 -34 74 -3 63 33 -9 27 -27 28
-51 2z"/>
<path d="M3017 1383 c-4 -3 -7 -13 -7 -21 0 -9 -8 -24 -17 -34 -15 -17 -15
-21 -3 -29 25 -15 41 -6 55 33 8 26 9 40 2 47 -13 13 -21 14 -30 4z"/>
<path d="M1393 1364 c-7 -18 11 -39 26 -30 17 11 13 46 -4 46 -9 0 -18 -7 -22
-16z"/>
<path d="M1720 1351 c0 -23 35 -34 50 -15 16 18 4 34 -26 34 -17 0 -24 -6 -24
-19z"/>
<path d="M2792 1358 c-18 -18 -14 -38 8 -38 11 0 20 7 20 15 0 8 0 18 1 22 1
13 -16 14 -29 1z"/>
<path d="M2907 1363 c-4 -3 -7 -17 -7 -30 0 -13 -7 -26 -15 -29 -15 -6 -21
-35 -9 -46 11 -12 44 5 44 24 0 10 7 30 16 43 9 13 13 29 9 35 -7 11 -28 13
-38 3z"/>
<path d="M2056 1344 c-7 -19 10 -44 30 -44 16 0 16 5 8 38 -7 26 -29 29 -38 6z"/>
<path d="M1192 1333 c5 -26 38 -29 38 -4 0 15 -6 21 -21 21 -14 0 -19 -5 -17
-17z"/>
<path d="M3465 1330 c-7 -12 18 -36 48 -44 20 -5 35 20 21 34 -16 15 -61 22
-69 10z"/>
<path d="M3115 1321 c-10 -17 4 -31 31 -31 19 0 25 5 22 18 -4 19 -43 29 -53
13z"/>
<path d="M1246 1305 c-3 -8 -12 -15 -21 -15 -19 0 -20 -36 0 -44 8 -3 15 -1
15 4 0 6 7 10 16 10 12 0 14 -7 9 -30 -5 -23 -3 -32 11 -37 10 -4 22 0 29 10
11 15 19 15 69 6 46 -10 55 -15 51 -29 -3 -9 1 -23 10 -30 17 -14 50 -6 40 10
-15 25 10 26 76 3 52 -18 81 -23 110 -18 21 4 39 9 39 11 0 3 -16 21 -35 40
-29 29 -39 33 -50 24 -18 -15 -63 -6 -132 26 -28 14 -55 24 -60 22 -13 -3
-133 34 -139 43 -8 14 -31 10 -38 -6z"/>
<path d="M1656 1311 c-11 -18 6 -42 28 -39 29 4 29 42 -1 46 -11 2 -24 -1 -27
-7z"/>
<path d="M1777 1304 c-13 -13 -7 -42 10 -48 21 -8 36 6 31 30 -3 19 -29 30
-41 18z"/>
<path d="M1994 1285 c-9 -22 3 -45 20 -39 21 8 29 36 14 46 -19 12 -28 10 -34
-7z"/>
<path d="M2490 1275 c-13 -16 -6 -35 15 -35 18 0 26 15 19 34 -8 20 -18 20
-34 1z"/>
<path d="M2596 1281 c-10 -16 5 -42 23 -39 21 4 21 42 -1 46 -9 2 -19 -1 -22
-7z"/>
<path d="M3423 1283 c-7 -2 -13 -10 -13 -18 0 -7 -7 -18 -15 -25 -8 -7 -12
-16 -9 -21 9 -15 44 -10 44 6 0 8 9 20 19 27 15 9 17 15 9 25 -11 14 -15 14
-35 6z"/>
<path d="M1524 1268 c-4 -6 1 -17 12 -25 15 -11 20 -11 32 1 8 8 11 19 8 25
-9 14 -43 14 -52 -1z"/>
<path d="M2286 1264 c-18 -18 -20 -30 -7 -39 12 -7 41 22 41 41 0 18 -15 18
-34 -2z"/>
<path d="M2663 1265 c-17 -19 -16 -32 3 -39 26 -10 34 -7 43 17 13 34 -21 50
-46 22z"/>
<path d="M3141 1266 c-23 -27 47 -85 72 -59 4 3 0 15 -10 25 -9 10 -13 18 -8
18 4 0 2 7 -5 15 -15 19 -34 19 -49 1z"/>
<path d="M2108 1256 c-10 -7 -18 -18 -18 -25 0 -7 -9 -9 -25 -5 -22 5 -25 3
-25 -19 0 -20 7 -28 36 -37 19 -7 38 -9 41 -6 10 10 45 -15 40 -29 -6 -13 11
-35 26 -35 10 0 5 43 -8 74 -6 14 -5 17 4 12 14 -9 41 11 41 30 0 15 -36 19
-44 5 -3 -5 -14 -11 -25 -14 -17 -4 -18 -2 -8 14 9 15 9 22 -3 33 -12 12 -18
13 -32 2z"/>
<path d="M2405 1260 c-9 -15 3 -30 24 -30 25 0 33 11 20 27 -13 15 -35 17 -44
3z"/>
<path d="M2546 1252 c-11 -18 10 -67 30 -67 15 0 19 6 17 29 -3 36 -33 60 -47
38z"/>
<path d="M1145 1240 c-9 -15 14 -40 36 -40 14 0 19 7 19 25 0 20 -5 25 -24 25
-14 0 -28 -5 -31 -10z"/>
<path d="M2820 1231 c0 -25 19 -38 31 -20 12 19 6 33 -14 37 -11 2 -17 -3 -17
-17z"/>
<path d="M2928 1224 c-18 -10 -25 -20 -21 -30 7 -20 62 -11 80 13 25 33 -9 43
-59 17z"/>
<path d="M1884 1219 c-8 -13 15 -30 36 -26 8 1 16 10 18 20 3 12 -3 17 -22 17
-14 0 -28 -5 -32 -11z"/>
<path d="M2757 1224 c-11 -11 5 -34 24 -34 12 0 19 7 19 20 0 19 -28 28 -43
14z"/>
<path d="M1733 1203 c-8 -19 16 -43 43 -43 47 0 41 45 -8 52 -19 3 -32 0 -35
-9z"/>
<path d="M2498 1215 c-10 -11 4 -45 19 -45 9 0 13 8 11 22 -3 21 -19 34 -30
23z"/>
<path d="M2345 1200 c-8 -14 3 -30 21 -30 8 0 14 9 14 20 0 21 -24 28 -35 10z"/>
<path d="M2256 1191 c-4 -5 1 -26 11 -45 19 -40 53 -50 53 -16 0 11 -4 20 -9
20 -5 0 -11 10 -13 22 -3 24 -32 36 -42 19z"/>
<path d="M2426 1182 c-12 -21 -17 -80 -6 -87 16 -10 27 4 35 46 5 28 3 38 -9
42 -8 3 -17 3 -20 -1z"/>
<path d="M2720 1165 c0 -9 7 -18 15 -21 8 -4 15 -14 15 -23 0 -9 6 -23 12 -29
10 -10 10 -15 -1 -22 -12 -7 -12 -11 -2 -24 20 -24 29 -11 29 41 0 34 -5 53
-21 70 -25 26 -47 30 -47 8z"/>
<path d="M2982 1148 c3 -25 17 -32 37 -19 12 8 12 12 2 25 -20 24 -43 20 -39
-6z"/>
<path d="M1913 1144 c-3 -9 0 -20 8 -25 23 -14 29 -11 29 16 0 28 -27 35 -37
9z"/>
<path d="M1970 1135 c0 -14 -4 -25 -9 -25 -14 0 -23 -37 -16 -61 11 -34 37
-18 41 25 2 21 8 44 14 52 14 15 5 34 -16 34 -8 0 -14 -10 -14 -25z"/>
<path d="M2923 1141 c-3 -12 -9 -21 -14 -21 -19 0 -8 -39 16 -54 22 -15 25
-15 34 2 7 11 13 13 18 6 5 -6 18 -15 31 -19 18 -5 25 -3 29 13 3 12 10 19 16
16 7 -2 19 1 27 6 13 8 13 11 -1 26 -16 15 -18 15 -36 -2 -16 -17 -31 -19 -78
-15 -6 1 -11 13 -10 28 0 32 -24 43 -32 14z"/>
<path d="M1517 1134 c-3 -3 -1 -17 5 -30 19 -40 56 -26 43 16 -6 19 -34 27
-48 14z"/>
<path d="M2567 1126 c-7 -17 18 -40 33 -31 5 3 10 15 10 26 0 23 -35 27 -43 5z"/>
<path d="M2833 1124 c-3 -8 -1 -20 5 -26 14 -14 53 8 46 27 -8 20 -43 19 -51
-1z"/>
<path d="M1596 1113 c-4 -9 -1 -20 6 -24 10 -7 10 -11 0 -21 -17 -17 -15 -58
3 -58 14 0 37 40 33 58 -1 4 2 15 7 26 5 12 3 21 -6 27 -21 13 -36 11 -43 -8z"/>
<path d="M1827 1123 c-15 -14 -6 -52 13 -58 31 -10 40 2 28 35 -9 28 -27 38
-41 23z"/>
<path d="M2090 1110 c-9 -18 -8 -20 15 -20 18 0 25 5 25 20 0 11 -7 20 -15 20
-8 0 -19 -9 -25 -20z"/>
<path d="M1675 1110 c-11 -18 13 -36 31 -25 9 6 16 15 17 20 3 14 -40 18 -48
5z"/>
<path d="M2471 1106 c-9 -10 -8 -16 3 -25 10 -9 16 -8 25 3 9 10 8 16 -3 25
-10 9 -16 8 -25 -3z"/>
<path d="M2635 1110 c-7 -11 11 -50 23 -50 14 0 32 24 32 42 0 20 -44 26 -55
8z"/>
<path d="M1743 1094 c-8 -20 9 -49 28 -49 18 0 24 32 9 50 -16 20 -29 19 -37
-1z"/>
<path d="M2337 1083 c-13 -12 -7 -43 8 -43 16 0 38 34 28 44 -8 8 -28 8 -36
-1z"/>
<path d="M2813 1063 c-7 -2 -13 -11 -13 -19 0 -11 8 -14 28 -12 16 2 27 9 27
18 0 15 -21 22 -42 13z"/>
<path d="M1312 1038 c2 -12 10 -23 18 -23 22 0 19 39 -3 43 -15 3 -18 -1 -15
-20z"/>
<path d="M2046 1045 c-11 -29 -7 -36 17 -33 14 2 22 10 22 23 0 24 -30 32 -39
10z"/>
<path d="M2490 1030 c0 -23 10 -26 28 -8 18 18 15 28 -8 28 -13 0 -20 -7 -20
-20z"/>
<path d="M3600 1636 c-5 -13 -14 -27 -19 -31 -16 -9 -14 -18 9 -43 24 -26 58
-29 67 -6 4 11 -2 23 -17 34 -15 11 -19 19 -11 24 16 11 13 46 -4 46 -9 0 -20
-11 -25 -24z"/>
<path d="M1971 4194 c0 -11 3 -14 6 -6 3 7 2 16 -1 19 -3 4 -6 -2 -5 -13z"/>
<path d="M2645 4125 c-3 -26 -4 -49 -2 -51 3 -3 8 16 12 41 3 26 4 49 2 51 -3
3 -8 -16 -12 -41z"/>
<path d="M1801 4158 c-1 -3 15 -66 34 -138 19 -72 35 -133 35 -136 0 -2 4 -4
9 -4 5 0 1 30 -10 68 -27 96 -67 218 -68 210z"/>
<path d="M1980 4120 c0 -16 4 -30 8 -30 5 0 7 14 4 30 -2 17 -6 30 -8 30 -2 0
-4 -13 -4 -30z"/>
<path d="M1671 3999 c72 -209 100 -283 112 -294 6 -7 8 -2 4 15 -7 34 -148
403 -158 414 -5 5 14 -55 42 -135z"/>
<path d="M2786 4010 c-21 -72 -35 -136 -33 -143 6 -16 9 -7 47 142 17 67 29
125 27 127 -2 3 -21 -54 -41 -126z"/>
<path d="M2977 4063 c-14 -37 -51 -135 -82 -217 -48 -128 -60 -174 -40 -154 8
8 155 432 151 436 -2 2 -15 -27 -29 -65z"/>
<path d="M1451 4095 c0 -5 11 -30 24 -55 13 -25 24 -40 24 -35 0 6 -11 30 -24
55 -13 25 -24 41 -24 35z"/>
<path d="M3170 4079 c-7 -11 -10 -23 -7 -25 2 -2 9 7 15 21 14 30 7 33 -8 4z"/>
<path d="M3035 3792 c-60 -125 -110 -230 -112 -234 -2 -4 1 -9 6 -12 4 -3 33
49 64 117 30 67 79 173 107 236 90 198 47 129 -65 -107z"/>
<path d="M1501 3988 c-1 -4 26 -67 59 -140 34 -73 77 -170 98 -215 34 -77 52
-101 52 -70 0 13 -208 436 -209 425z"/>
<path d="M3178 3743 c-193 -326 -190 -321 -179 -327 11 -7 8 -12 178 294 142
255 145 260 140 260 -3 0 -65 -102 -139 -227z"/>
<path d="M1337 3930 c125 -232 288 -509 295 -502 6 6 -47 104 -134 249 -134
226 -208 342 -161 253z"/>
<path d="M3272 3616 c-185 -257 -240 -344 -202 -321 5 3 99 137 207 297 216
319 216 318 210 318 -2 0 -99 -132 -215 -294z"/>
<path d="M1213 3809 c35 -52 124 -182 197 -289 73 -107 139 -202 146 -210 12
-12 14 -12 14 4 0 10 -71 115 -157 234 -86 120 -176 245 -200 279 -25 35 -49
65 -54 69 -6 3 18 -36 54 -87z"/>
<path d="M3570 3738 c-425 -491 -481 -561 -441 -546 5 2 114 131 242 288 272
335 252 310 248 310 -2 0 -24 -23 -49 -52z"/>
<path d="M1047 3750 c46 -64 448 -550 455 -550 24 0 -9 45 -178 240 -200 231
-306 350 -277 310z"/>
<path d="M920 3635 c150 -165 529 -544 535 -535 3 5 4 14 1 18 -3 5 -137 137
-298 293 -161 156 -268 257 -238 224z"/>
<path d="M3700 3628 c-189 -181 -530 -520 -530 -529 0 -5 4 -9 8 -9 4 0 89 82
188 183 266 270 408 417 403 417 -2 0 -33 -28 -69 -62z"/>
<path d="M809 3502 c20 -19 159 -140 309 -269 186 -160 277 -232 284 -225 10
10 -1 20 -227 205 -312 255 -424 343 -366 289z"/>
<path d="M3535 3274 c-170 -140 -311 -259 -313 -263 -13 -37 49 10 289 216
319 274 352 303 342 302 -5 0 -147 -115 -318 -255z"/>
<path d="M650 3406 c0 -2 24 -21 53 -42 455 -327 623 -447 633 -451 7 -2 15 0
18 6 4 5 -92 76 -211 157 -120 81 -280 190 -355 241 -76 52 -138 92 -138 89z"/>
<path d="M3853 3322 c-61 -42 -211 -144 -333 -227 -122 -82 -229 -155 -238
-162 -13 -9 -14 -15 -6 -23 9 -9 95 49 340 226 311 224 365 264 354 264 -3 0
-55 -35 -117 -78z"/>
<path d="M590 3237 c0 -3 111 -72 248 -153 136 -81 291 -173 346 -206 57 -34
105 -57 114 -53 25 9 60 -12 -443 267 -99 55 -199 112 -222 125 -24 14 -43 23
-43 20z"/>
<path d="M4005 3221 c-16 -11 -176 -101 -355 -201 -179 -100 -327 -183 -329
-185 -1 -2 0 -9 4 -15 8 -12 -9 -22 370 204 313 186 362 216 349 216 -5 0 -22
-9 -39 -19z"/>
<path d="M4105 3080 c-33 -16 -161 -74 -285 -130 -124 -56 -276 -125 -337
-153 -62 -28 -113 -54 -113 -58 0 -27 12 -22 705 316 61 29 106 53 100 53 -5
0 -37 -12 -70 -28z"/>
<path d="M471 3096 c23 -20 766 -366 777 -361 26 10 54 -5 -363 182 -410 184
-428 192 -414 179z"/>
<path d="M442 2920 c10 -6 93 -39 185 -74 92 -35 255 -96 360 -136 112 -42
199 -70 209 -66 9 4 15 9 12 11 -3 4 -469 168 -763 270 -18 6 -18 5 -3 -5z"/>
<path d="M4178 2925 c-3 -3 -173 -64 -379 -136 -205 -71 -375 -132 -378 -135
-3 -2 0 -9 5 -14 6 -6 142 41 378 131 357 135 413 158 390 159 -6 0 -13 -2
-16 -5z"/>
<path d="M475 2728 c73 -23 658 -188 670 -188 3 0 5 6 5 14 0 8 -14 17 -32 21
-18 4 -181 45 -361 91 -181 46 -332 84 -335 83 -4 -1 20 -10 53 -21z"/>
<path d="M3880 2669 c-168 -44 -329 -84 -357 -91 -51 -10 -67 -23 -40 -34 11
-4 716 192 726 202 10 10 -41 -2 -329 -77z"/>
<path d="M338 2583 c7 -3 16 -2 19 1 4 3 -2 6 -13 5 -11 0 -14 -3 -6 -6z"/>
<path d="M4268 2583 c7 -3 16 -2 19 1 4 3 -2 6 -13 5 -11 0 -14 -3 -6 -6z"/>
<path d="M393 2573 c9 -2 23 -2 30 0 6 3 -1 5 -18 5 -16 0 -22 -2 -12 -5z"/>
<path d="M3925 2534 c-143 -24 -290 -49 -327 -55 -49 -8 -68 -15 -68 -26 0
-11 7 -13 28 -9 15 4 122 24 237 46 339 64 452 88 420 88 -16 0 -147 -20 -290
-44z"/>
<path d="M475 2559 c145 -35 611 -116 619 -108 5 5 8 11 5 13 -6 6 -622 106
-645 105 -10 -1 -1 -5 21 -10z"/>
<path d="M4398 2423 c6 -2 18 -2 25 0 6 3 1 5 -13 5 -14 0 -19 -2 -12 -5z"/>
<path d="M268 2413 c12 -2 30 -2 40 0 9 3 -1 5 -23 4 -22 0 -30 -2 -17 -4z"/>
<path d="M3935 2393 c-181 -13 -336 -26 -344 -29 -9 -3 -11 -8 -4 -15 6 -6
133 3 369 26 529 52 521 58 -21 18z"/>
<path d="M665 2374 c372 -38 378 -38 373 -21 -3 8 -90 18 -309 34 -421 30
-440 26 -64 -13z"/>
<path d="M380 2240 c-146 -4 -102 -6 208 -8 256 -1 392 1 392 8 0 11 -258 11
-600 0z"/>
<path d="M3645 2240 c7 -11 444 -12 620 0 76 4 -3 7 -258 8 -243 1 -366 -1
-362 -8z"/>
<path d="M650 2099 c-140 -15 -238 -27 -216 -28 44 -1 469 29 475 34 18 18
-40 16 -259 -6z"/>
<path d="M3710 2120 c0 -15 25 -18 285 -35 331 -21 336 -17 20 15 -318 33
-305 33 -305 20z"/>
<path d="M323 2063 c15 -2 37 -2 50 0 12 2 0 4 -28 4 -27 0 -38 -2 -22 -4z"/>
<path d="M4333 2063 c9 -2 23 -2 30 0 6 3 -1 5 -18 5 -16 0 -22 -2 -12 -5z"/>
<path d="M615 1944 c-116 -23 -201 -43 -190 -43 20 -1 397 60 404 65 1 1 1 7
0 11 -2 5 -98 -10 -214 -33z"/>
<path d="M3790 1980 c0 -5 2 -10 5 -10 2 0 100 -16 216 -35 117 -19 219 -35
228 -34 17 1 -415 89 -436 89 -7 0 -13 -4 -13 -10z"/>
<path d="M3880 1822 c0 -9 330 -95 337 -88 3 3 -317 96 -331 96 -3 0 -6 -4 -6
-8z"/>
<path d="M705 1815 c-5 -2 -67 -21 -138 -41 -70 -20 -126 -39 -124 -41 6 -5
290 69 302 79 9 8 -20 10 -40 3z"/>
<path d="M408 1723 c7 -3 16 -2 19 1 4 3 -2 6 -13 5 -11 0 -14 -3 -6 -6z"/>
<path d="M3986 1631 c7 -7 121 -48 214 -77 53 -17 -35 22 -115 51 -101 37
-115 40 -99 26z"/>
<path d="M532 1593 c-51 -20 -91 -38 -89 -40 5 -4 179 58 192 69 17 15 -8 8
-103 -29z"/>
<path d="M4140 1390 c19 -11 40 -19 45 -19 6 0 -6 8 -25 19 -19 11 -39 19 -45
19 -5 0 6 -8 25 -19z"/>
<path d="M464 1374 c-18 -14 -18 -14 6 -3 31 14 36 19 24 19 -6 0 -19 -7 -30
-16z"/>
<path d="M1657 833 c-17 -27 -197 -437 -193 -440 1 -2 16 25 31 59 15 34 61
131 102 215 41 85 73 159 71 165 -3 9 -6 9 -11 1z"/>
<path d="M1937 833 c-8 -14 -129 -494 -125 -498 2 -2 25 74 52 168 26 95 58
207 71 250 12 42 19 79 15 82 -5 3 -11 2 -13 -2z"/>
<path d="M2067 830 c-4 -8 -22 -112 -42 -230 -45 -277 -48 -296 -42 -290 9 9
98 492 94 514 -3 16 -5 17 -10 6z"/>
<path d="M2314 825 c-4 -9 -2 -172 3 -363 l10 -347 1 363 c1 199 0 362 -3 362
-3 0 -8 -7 -11 -15z"/>
<path d="M2439 835 c-3 -3 -2 -33 2 -67 4 -35 15 -151 25 -258 25 -262 30
-214 9 79 -15 216 -22 261 -36 246z"/>
<path d="M2690 833 c-1 -15 143 -513 147 -509 3 3 -37 164 -118 479 -5 20 -14
37 -19 37 -6 0 -10 -3 -10 -7z"/>
<path d="M2830 827 c0 -14 27 -86 147 -400 15 -37 28 -66 30 -64 4 5 -157 460
-168 472 -6 5 -9 3 -9 -8z"/>
<path d="M2977 833 c-5 -8 200 -444 216 -459 4 -4 -8 26 -27 67 -18 41 -66
146 -106 234 -78 175 -76 170 -83 158z"/>
<path d="M3130 834 c0 -13 178 -314 186 -314 3 0 -11 28 -31 63 -19 34 -54 96
-76 137 -44 82 -78 132 -79 114z"/>
<path d="M1090 778 c-24 -29 -50 -61 -58 -70 -8 -10 -13 -18 -10 -18 9 0 121
131 116 135 -3 3 -24 -19 -48 -47z"/>
<path d="M1237 700 c-48 -72 -85 -130 -83 -130 4 0 163 218 180 248 4 6 4 12
-1 12 -4 0 -47 -59 -96 -130z"/>
<path d="M1487 807 c-13 -20 -64 -111 -144 -257 -35 -64 1 -17 47 60 21 36 59
100 84 143 25 42 42 77 37 77 -5 0 -15 -10 -24 -23z"/>
<path d="M1795 818 c-33 -88 -154 -443 -151 -445 3 -3 60 143 147 380 16 42
24 77 19 77 -6 0 -13 -6 -15 -12z"/>
<path d="M2187 823 c-2 -5 -5 -28 -6 -53 -1 -25 -9 -135 -17 -245 -20 -288
-15 -306 11 -40 13 127 26 256 30 288 4 35 2 57 -4 57 -5 0 -12 -3 -14 -7z"/>
<path d="M2560 823 c0 -22 99 -495 99 -478 1 18 -62 409 -74 463 -5 20 -25 32
-25 15z"/>
<path d="M3380 719 c113 -158 129 -169 28 -20 -47 69 -90 127 -97 129 -7 2 25
-47 69 -109z"/>
<path d="M3537 783 c62 -73 86 -88 29 -18 -26 33 -53 62 -59 64 -6 2 7 -18 30
-46z"/>
<path d="M3740 816 c0 -2 8 -10 18 -17 15 -13 16 -12 3 4 -13 16 -21 21 -21
13z"/>
<path d="M2493 265 c0 -27 2 -38 4 -22 2 15 2 37 0 50 -2 12 -4 0 -4 -28z"/>
<path d="M2661 294 c0 -11 3 -14 6 -6 3 7 2 16 -1 19 -3 4 -6 -2 -5 -13z"/>
<path d="M2142 200 c0 -19 2 -27 5 -17 2 9 2 25 0 35 -3 9 -5 1 -5 -18z"/>
<path d="M2502 150 c0 -14 2 -19 5 -12 2 6 2 18 0 25 -3 6 -5 1 -5 -13z"/>
</g>
</svg>
